<svg xmlns="http://www.w3.org/2000/svg" xmlns:xlink="http://www.w3.org/1999/xlink" version="1.1" x="0px" y="0px" viewBox="0 0 32 40" style="enable-background:new 0 0 32 32;" xml:space="preserve"><style type="text/css">
	.st0{display:none;}
	.st1{display:inline;}
	.st2{fill:none;stroke:#CCCCCC;stroke-width:0.1;stroke-miterlimit:10;}
</style><g class="st0"><g class="st1"><rect x="2" y="2" class="st2" width="28" height="28"/><line class="st2" x1="2" y1="30" x2="30" y2="2"/><line class="st2" x1="2" y1="2" x2="30" y2="30"/><rect x="6" y="6" class="st2" width="20" height="20"/><line class="st2" x1="2" y1="16" x2="16" y2="2"/><line class="st2" x1="16" y1="2" x2="30" y2="16"/><line class="st2" x1="30" y1="16" x2="16" y2="30"/><line class="st2" x1="16" y1="30" x2="2" y2="16"/><circle class="st2" cx="16" cy="16" r="10"/></g></g><path d="M28,18.6v-4.4l0.5-0.2c0.7-0.4,0.7-1.4,0-1.8l-12.1-6C16.2,6,16.2,6,16,6s-0.2,0-0.4,0.1l-12.1,6c-0.7,0.4-0.7,1.4,0,1.8  L9,16.6v6.8c0,0.4,0.2,0.7,0.5,0.9c2.2,1.1,4.3,1.7,6.5,1.7s4.3-0.6,6.5-1.7c0.3-0.2,0.5-0.5,0.5-0.9v-6.8l4-2v4  c-0.6,0.2-1,0.7-1,1.4c0,0.6,0.8,2.6,1,3.2c0.1,0.2,0.3,0.3,0.5,0.3s0.4-0.1,0.5-0.3c0.2-0.6,1-2.5,1-3.2C29,19.3,28.6,18.8,28,18.6  z M22,23.4c-2,1.1-4,1.6-6,1.6s-4-0.5-6-1.6v-6.3l5.6,2.8C15.8,20,15.8,20,16,20s0.2,0,0.4-0.1l5.6-2.8V23.4z M26.1,14L16,19L3.9,13  L16,7l12.1,6L28,13v0H16v1H26.1z M27.5,21.6C27.2,20.9,27,20.2,27,20c0-0.3,0.2-0.5,0.5-0.5S28,19.7,28,20  C28,20.2,27.8,20.9,27.5,21.6z"/><text x="0" y="47" fill="#000000" font-size="5px" font-weight="bold" font-family="'Helvetica Neue', Helvetica, Arial-Unicode, Arial, Sans-serif">Created by I Putu Kharismayadi</text><text x="0" y="52" fill="#000000" font-size="5px" font-weight="bold" font-family="'Helvetica Neue', Helvetica, Arial-Unicode, Arial, Sans-serif">from the Noun Project</text></svg>